<svg width="1706" height="877" viewBox="0 0 1706 877" fill="none" xmlns="http://www.w3.org/2000/svg">
<path d="M742.803 481.103C719.447 465.9 707.83 430.566 713.553 398.253C719.276 365.939 740.828 338.107 766.663 326.104C779.231 320.44 793.009 317.986 806.759 318.963C820.51 319.941 833.802 324.319 845.442 331.704C869.134 346.191 902.642 354.126 913.893 383.112C922.539 405.386 911.573 450.617 899.936 472.252C889.878 490.951 870.766 499.505 852.81 503.221C832.945 507.273 812.441 507.01 792.686 502.452C772.931 497.894 754.385 489.146 738.303 476.801L742.803 481.103Z" fill="#2F2E41"/>
<path d="M730.621 652.729L711.948 684.924L709.481 689.171L705.889 695.416H650.836L654.552 689.171L664.17 672.964L686.591 635.117L711.979 645.266L730.621 652.729Z" fill="#FFB8B8"/>
<path d="M646.713 695.416L636.658 689.17L635.409 688.39L698.519 573.38C701.234 568.402 704.908 564.012 709.33 560.463C713.752 556.915 718.834 554.279 724.282 552.708C731.159 550.659 738.444 550.391 745.454 551.927C749.544 552.79 753.481 554.264 757.133 556.299C758.636 557.123 760.085 558.041 761.473 559.047C766.81 562.789 771.195 567.73 774.276 573.474C777.944 580.198 779.755 587.777 779.525 595.432C779.294 603.088 777.03 610.544 772.965 617.036L748.639 655.913L727.842 689.17L723.938 695.416H646.713V695.416Z" fill="#2F2E41"/>
<path d="M808.858 521.922C851.217 521.922 885.555 487.583 885.555 445.225C885.555 402.866 851.217 368.527 808.858 368.527C766.5 368.527 732.161 402.866 732.161 445.225C732.161 487.583 766.5 521.922 808.858 521.922Z" fill="#FFB8B8"/>
<path d="M885.852 695.415H713.447L714.228 693.198C713.79 691.856 713.384 690.513 713.009 689.17C712.604 687.765 712.259 686.328 711.948 684.923C709.146 671.851 709.157 658.332 711.978 645.265C721.504 598.486 759.507 560.483 759.507 560.483C760.163 559.983 760.818 559.515 761.474 559.046C767.127 554.907 773.261 551.468 779.742 548.804C807.971 537.094 837.575 541.809 857.465 547.867C864.393 549.962 871.165 552.54 877.733 555.58C880.043 556.673 881.293 557.36 881.293 557.36L883.26 617.348L885.632 689.17L885.852 695.415Z" fill="#812CC2"/>
<path d="M965.608 689.17L952.429 622.156L939.127 554.581C938.572 551.79 937.187 549.232 935.153 547.243C933.119 545.253 930.53 543.925 927.728 543.433L899.874 538.624L873.956 534.158C871.456 533.708 868.88 533.95 866.508 534.858C864.135 535.766 862.057 537.306 860.497 539.311C858.549 541.738 857.481 544.754 857.467 547.867C857.467 549.789 857.861 551.691 858.623 553.457C872.144 584.996 872.394 634.928 868.959 689.17C868.803 691.231 868.678 693.323 868.521 695.415H966.856L965.608 689.17Z" fill="#2F2E41"/>
<path d="M779.743 548.804C779.17 546.532 778.04 544.437 776.456 542.71C774.872 540.982 772.884 539.676 770.669 538.908C768.455 538.14 766.084 537.934 763.771 538.31C761.457 538.685 759.273 539.631 757.416 541.06L745.456 551.927L696.491 596.519C694.965 597.889 693.769 599.586 692.993 601.484C687.466 614.693 676.693 640.768 664.17 672.963C662.141 678.21 660.049 683.612 657.895 689.17C657.144 691.231 656.333 693.324 655.521 695.416H736.213C736.868 693.324 737.524 691.231 738.18 689.17C741.77 677.835 745.268 666.718 748.641 655.913C758.508 624.53 767.408 596.02 774.279 573.474C776.183 567.228 777.921 561.461 779.493 556.174C780.227 553.782 780.313 551.24 779.743 548.804V548.804Z" fill="#2F2E41"/>
<path d="M983.716 695.416H988.931L988.213 693.667L986.308 689.17L956.923 619.44L952.427 622.157L916.328 643.984L934.846 689.17L937.406 695.416H966.854H983.716Z" fill="#FFB8B8"/>
<path d="M953.926 564.137C949.95 553.73 942.105 545.264 932.03 540.509C921.956 535.754 910.432 535.079 899.872 538.624C898.522 539.072 897.198 539.593 895.906 540.186C888.508 543.486 882.204 548.826 877.732 555.581C875.907 558.278 874.408 561.181 873.266 564.231C871.24 569.524 870.282 575.166 870.448 580.831C870.614 586.496 871.901 592.073 874.234 597.238L883.259 617.348L915.548 689.171L918.358 695.416H983.717L988.213 693.667L999.893 689.171L1001.52 688.546L953.926 564.137Z" fill="#2F2E41"/>
<path d="M869.097 357.137C871.771 357.938 874.634 357.836 877.243 356.846C879.852 355.856 882.062 354.033 883.531 351.66C884.922 349.241 885.74 346.536 885.923 343.751C886.106 340.967 885.649 338.178 884.587 335.598C882.411 330.448 878.98 325.924 874.609 322.437C869.645 317.945 863.601 314.816 857.067 313.355C853.803 312.653 850.426 312.661 847.165 313.378C843.904 314.095 840.835 315.504 838.166 317.511C835.546 319.584 833.603 322.392 832.588 325.575C831.572 328.758 831.529 332.172 832.465 335.38C834.45 341.14 839.829 344.998 845.201 347.872C855.86 353.562 867.613 356.903 879.67 357.671L869.097 357.137Z" fill="#2F2E41"/>
<path d="M884.016 442.935C871.685 444.635 873.268 438.359 868.33 426.933C863.391 415.507 856.781 401.944 844.387 400.787C834.231 399.838 825.863 407.958 817.635 413.987C802.97 424.733 783.205 429.993 766.206 423.546C749.206 417.1 737.393 396.839 743.843 379.841C745.851 375.147 748.801 370.916 752.511 367.408C756.221 363.901 760.611 361.193 765.41 359.452C775.038 356.029 785.263 354.609 795.459 355.278C818.135 356.003 840.375 361.696 860.611 371.956C874.576 379.052 888.172 389.203 893.47 403.945C898.767 418.687 902.254 439.403 887.105 443.39L884.016 442.935Z" fill="#2F2E41"/>
<path d="M862.793 316.59C856.698 305.981 861.729 291.425 871.702 284.336C881.674 277.247 895.052 276.552 906.952 279.395C918.721 282.36 929.503 288.367 938.218 296.813C946.933 305.26 953.273 315.85 956.604 327.52C961.654 346.073 958.651 366 962.928 384.746C965.208 394.739 969.509 404.159 975.567 412.427C981.624 420.695 989.311 427.636 998.152 432.821C1006.99 438.006 1016.8 441.327 1026.98 442.578C1037.15 443.83 1047.47 442.985 1057.3 440.097C1070.11 436.336 1083.13 427.191 1084.39 413.9C1085.72 429.162 1082.24 444.457 1074.44 457.643C1066.64 470.829 1054.91 481.247 1040.9 487.436C1024.39 494.321 1005.98 494.77 988.109 494.311C976.459 494.012 964.544 493.311 953.797 488.804C946.361 485.413 939.676 480.571 934.136 474.564C928.595 468.556 924.308 461.503 921.528 453.817C916.057 438.37 914.579 421.789 917.233 405.618C918.992 393.038 922.49 380.709 923.469 368.045C924.448 355.381 922.592 341.859 914.784 331.841C906.977 321.822 892.064 316.704 880.964 322.878C876.503 325.36 872.904 329.413 868.057 331.014C863.21 332.616 856.341 329.802 856.782 324.716L862.793 316.59Z" fill="#2F2E41"/>
<path d="M1386.17 695.416L1386.77 689.17L1404.38 505.929C1410.15 501.409 1416.35 497.466 1422.9 494.157C1459.15 475.889 1494.13 484.632 1513.05 492.189C1518.06 494.153 1522.91 496.523 1527.54 499.278L1537.84 689.17L1538.19 695.416H1386.17Z" fill="#812CC2"/>
<path d="M1468.65 457.161C1511.01 457.161 1545.35 422.822 1545.35 380.464C1545.35 338.105 1511.01 303.767 1468.65 303.767C1426.29 303.767 1391.95 338.105 1391.95 380.464C1391.95 422.822 1426.29 457.161 1468.65 457.161Z" fill="#FFB8B8"/>
<path d="M1530.88 427.228C1536.58 421.22 1540.37 413.652 1541.75 405.486C1543.14 397.32 1542.07 388.927 1538.67 381.373C1535.28 373.819 1529.71 367.445 1522.68 363.064C1515.65 358.682 1507.48 356.49 1499.2 356.767C1488.6 357.122 1478.6 361.462 1468.48 364.647C1453.14 369.865 1436.77 371.339 1420.75 368.945C1404.63 366.442 1390.08 357.853 1380.1 344.945C1370.61 331.903 1367.65 313.813 1374.36 299.144C1382.1 282.208 1400.18 272.876 1417.18 265.294C1424.04 261.86 1431.37 259.453 1438.92 258.15C1442.71 257.521 1446.59 257.681 1450.31 258.619C1454.03 259.557 1457.52 261.254 1460.55 263.602C1465.33 267.713 1468.13 273.891 1473.33 277.453C1479.19 281.463 1486.79 281.358 1493.85 282.065C1509.76 283.657 1524.8 290.053 1536.98 300.402C1549.16 310.751 1557.9 324.563 1562.03 340.001C1566.17 355.439 1565.51 371.771 1560.14 386.824C1554.77 401.878 1544.95 414.94 1531.97 424.273L1530.88 427.228Z" fill="#2F2E41"/>
<path d="M1434.32 525.883L1422.9 494.156L1422.18 492.178C1421.84 491.241 1421.3 490.392 1420.58 489.697C1419.87 489.003 1419 488.479 1418.06 488.167C1417.11 487.855 1416.11 487.763 1415.12 487.897C1414.13 488.031 1413.19 488.388 1412.36 488.941L1399.38 497.591C1399.38 497.591 1316.16 497.591 1309.48 547.523C1309.39 548.304 1309.26 549.178 1309.17 550.115C1309.16 550.158 1309.15 550.2 1309.14 550.24C1308.29 553.519 1292.59 614.225 1279.09 689.17C1278.72 691.231 1278.35 693.323 1277.97 695.415H1458.81V695.415C1464.69 620.129 1461.4 550.131 1434.32 525.883Z" fill="#2F2E41"/>
<path d="M1650.04 689.17C1640.18 612.288 1626.06 550.115 1626.06 550.115C1625.94 549.178 1625.81 548.304 1625.72 547.523C1619.07 497.591 1535.85 497.591 1535.85 497.591L1522.88 488.945C1522.05 488.392 1521.1 488.035 1520.11 487.901C1519.13 487.767 1518.12 487.86 1517.17 488.173C1516.23 488.485 1515.36 489.009 1514.65 489.705C1513.93 490.401 1513.39 491.25 1513.05 492.189L1500.9 525.883C1473.83 550.131 1470.54 620.128 1476.42 695.413L1476.42 695.415H1650.82C1650.57 693.323 1650.29 691.231 1650.04 689.17Z" fill="#2F2E41"/>
<path d="M185.236 514.11L166.688 689.17L166.032 695.415H115.851C116.444 693.386 117.037 691.293 117.662 689.17C131.902 640.331 151.294 569.039 149.2 550.147C145.922 520.668 168.874 510.832 168.874 510.832L170.311 511.113L185.236 514.11Z" fill="#812CC2"/>
<path d="M266.168 460.076C308.527 460.076 342.865 425.737 342.865 383.379C342.865 341.02 308.527 306.682 266.168 306.682C223.809 306.682 189.471 341.02 189.471 383.379C189.471 425.737 223.809 460.076 266.168 460.076Z" fill="#A0616A"/>
<path d="M365.45 658.255C361.582 665.386 358.414 672.874 355.988 680.614C355.083 683.362 354.209 686.235 353.396 689.17C352.803 691.2 352.273 693.292 351.742 695.416H149.451C149.733 693.355 149.982 691.263 150.264 689.17C160.6 607.511 168.968 524.634 170.311 511.113C170.436 509.833 170.499 509.177 170.499 509.177C291.722 445.286 380.189 528.85 380.189 528.85C380.189 528.85 380.314 529.443 380.502 530.599C382.438 542.278 392.305 610.478 365.45 658.255Z" fill="#812CC2"/>
<path d="M355.987 680.614L342.497 651.697L345.775 537.031L380.5 530.598L381.719 530.38C399.667 540.814 413.556 557.015 421.126 576.346C427.872 593.209 440.706 643.922 451.542 689.17C452.042 691.262 452.541 693.354 453.041 695.415H362.888L359.983 689.17L355.987 680.614Z" fill="#812CC2"/>
<path d="M479.369 180.167H35.8808C26.3682 180.179 17.2486 183.963 10.5221 190.689C3.79565 197.415 0.0115697 206.535 0 216.048V659.536C0.0115697 669.048 3.79565 678.168 10.5221 684.894C17.2486 691.621 26.3682 695.405 35.8808 695.416H479.369C488.883 695.41 498.006 691.627 504.733 684.9C511.46 678.172 515.242 669.05 515.248 659.536V216.048C515.242 206.534 511.46 197.411 504.733 190.683C498.006 183.956 488.883 180.174 479.369 180.167ZM509.003 659.536C508.996 667.393 505.872 674.927 500.316 680.483C494.76 686.039 487.227 689.164 479.369 689.17H35.8808C28.0247 689.159 20.4939 686.033 14.9388 680.478C9.38367 674.923 6.25748 667.392 6.24544 659.536V216.048C6.25748 208.192 9.38367 200.661 14.9388 195.106C20.4939 189.551 28.0247 186.425 35.8808 186.413H479.369C487.227 186.42 494.76 189.544 500.316 195.1C505.872 200.656 508.996 208.19 509.003 216.048V659.536ZM166.69 689.17L166.034 695.416H351.743C352.274 693.292 352.804 691.2 353.398 689.17H166.69Z" fill="#3F3D56"/>
<path d="M1074.59 180.167H631.1C621.588 180.179 612.468 183.963 605.742 190.689C599.015 197.415 595.231 206.535 595.22 216.048V659.536C595.231 669.048 599.015 678.168 605.742 684.894C612.468 691.621 621.588 695.405 631.1 695.416H1074.59C1084.1 695.41 1093.23 691.627 1099.95 684.9C1106.68 678.172 1110.46 669.05 1110.47 659.536V216.048C1110.46 206.534 1106.68 197.411 1099.95 190.683C1093.23 183.956 1084.1 180.174 1074.59 180.167V180.167ZM1104.22 659.536C1104.22 667.393 1101.09 674.927 1095.54 680.483C1089.98 686.039 1082.45 689.164 1074.59 689.17H631.1C623.244 689.159 615.714 686.033 610.158 680.478C604.603 674.923 601.477 667.392 601.465 659.536V216.048C601.477 208.192 604.603 200.661 610.158 195.106C615.714 189.551 623.244 186.425 631.1 186.413H1074.59C1082.45 186.42 1089.98 189.544 1095.54 195.1C1101.09 200.656 1104.22 208.19 1104.22 216.048V659.536ZM713.009 689.17C713.384 690.513 713.79 691.856 714.227 693.199L713.447 695.416H868.52C868.677 693.324 868.802 691.231 868.957 689.17H713.009Z" fill="#3F3D56"/>
<path d="M1669.84 180.167H1226.35C1216.84 180.173 1207.72 183.956 1200.99 190.683C1194.26 197.411 1190.48 206.533 1190.47 216.048V659.536C1190.48 669.05 1194.26 678.173 1200.99 684.9C1207.72 691.628 1216.84 695.41 1226.35 695.416H1669.84C1679.35 695.404 1688.47 691.62 1695.2 684.894C1701.92 678.168 1705.71 669.048 1705.72 659.536V216.048C1705.71 206.535 1701.92 197.416 1695.2 190.689C1688.47 183.963 1679.35 180.179 1669.84 180.167ZM1699.47 659.536C1699.46 667.392 1696.34 674.923 1690.78 680.478C1685.23 686.033 1677.7 689.159 1669.84 689.17H1226.35C1218.49 689.164 1210.96 686.04 1205.4 680.484C1199.85 674.928 1196.72 667.394 1196.72 659.536V216.048C1196.72 208.19 1199.85 200.656 1205.4 195.1C1210.96 189.544 1218.49 186.419 1226.35 186.413H1669.84C1677.7 186.425 1685.23 189.551 1690.78 195.106C1696.34 200.661 1699.46 208.192 1699.47 216.048V659.536ZM1459.28 689.17C1459.12 691.231 1458.96 693.324 1458.81 695.416H1593.36C1593.61 693.355 1593.9 691.263 1594.15 689.17H1459.28Z" fill="#3F3D56"/>
<path d="M1368.11 876.533H337.61C330.984 876.533 324.63 873.901 319.945 869.216C315.26 864.531 312.628 858.177 312.628 851.552C312.628 844.926 315.26 838.572 319.945 833.887C324.63 829.202 330.984 826.57 337.61 826.57H1368.11C1374.73 826.57 1381.09 829.202 1385.77 833.887C1390.46 838.572 1393.09 844.926 1393.09 851.552C1393.09 858.177 1390.46 864.531 1385.77 869.216C1381.09 873.901 1374.73 876.533 1368.11 876.533Z" fill="#CCCCCC"/>
<path d="M1079.26 49.9635H626.461C619.836 49.9635 613.481 47.3315 608.796 42.6465C604.111 37.9615 601.479 31.6073 601.479 24.9817C601.479 18.3562 604.111 12.002 608.796 7.31706C613.481 2.63207 619.836 0 626.461 0H1079.26C1085.88 0 1092.24 2.63207 1096.92 7.31706C1101.61 12.002 1104.24 18.3562 1104.24 24.9817C1104.24 31.6073 1101.61 37.9615 1096.92 42.6465C1092.24 47.3315 1085.88 49.9635 1079.26 49.9635Z" fill="#812CC2"/>
<path d="M302.855 454.95C305.452 457.511 308.886 459.05 312.526 459.283C316.166 459.516 319.768 458.428 322.671 456.22C340.747 442.82 356.616 426.142 366.008 405.798C376.769 382.487 377.969 353.882 364.995 331.726C354.027 312.997 334.659 300.911 315.357 290.987C307.862 286.757 299.789 283.645 291.393 281.751C282.908 279.879 274.029 281.312 266.563 285.758C262.91 288.048 260.033 291.385 258.306 295.335C256.579 299.285 256.082 303.664 256.881 307.9C247.609 297.322 235.733 289.35 222.431 284.775C214.055 281.498 204.883 280.833 196.121 282.868C183.872 286.342 174.93 297.225 170.039 308.98C166.083 317.922 164.717 327.795 166.096 337.475C166.822 342.292 168.551 346.903 171.171 351.009C173.791 355.116 177.244 358.627 181.306 361.316C191.433 367.581 204.353 367.13 215.984 364.57C227.615 362.01 238.873 357.558 250.729 356.432C262.584 355.306 275.787 358.262 283.002 367.736C288.083 374.408 289.388 383.126 290.528 391.435L296.461 434.65C296.946 440.902 298.543 447.017 301.176 452.708C301.632 453.527 302.197 454.282 302.855 454.95Z" fill="#2F2E41"/>
</svg>
