<svg width="1706" height="697" viewBox="0 0 1706 697" fill="none" xmlns="http://www.w3.org/2000/svg">
<path d="M742.803 301.103C719.447 285.9 707.83 250.566 713.553 218.253C719.276 185.939 740.828 158.107 766.663 146.104C779.231 140.44 793.009 137.986 806.759 138.963C820.51 139.941 833.802 144.319 845.442 151.704C869.134 166.191 902.642 174.126 913.893 203.112C922.539 225.386 911.573 270.617 899.936 292.252C889.878 310.951 870.766 319.505 852.81 323.221C832.945 327.273 812.441 327.01 792.686 322.452C772.931 317.894 754.385 309.146 738.303 296.801L742.803 301.103Z" fill="#2F2E41"/>
<path d="M730.621 472.729L711.948 504.924L709.481 509.171L705.889 515.416H650.836L654.552 509.171L664.17 492.964L686.591 455.117L711.979 465.266L730.621 472.729Z" fill="#FFB8B8"/>
<path d="M646.713 515.416L636.658 509.17L635.409 508.39L698.519 393.38C701.234 388.402 704.908 384.012 709.33 380.463C713.752 376.915 718.834 374.279 724.282 372.708C731.159 370.659 738.444 370.391 745.454 371.927C749.544 372.79 753.481 374.264 757.133 376.299C758.636 377.123 760.085 378.041 761.473 379.047C766.81 382.789 771.195 387.73 774.276 393.474C777.944 400.198 779.755 407.777 779.525 415.432C779.294 423.088 777.03 430.544 772.965 437.036L748.639 475.913L727.842 509.17L723.938 515.416H646.713V515.416Z" fill="#2F2E41"/>
<path d="M808.858 341.922C851.217 341.922 885.555 307.583 885.555 265.225C885.555 222.866 851.217 188.527 808.858 188.527C766.5 188.527 732.161 222.866 732.161 265.225C732.161 307.583 766.5 341.922 808.858 341.922Z" fill="#FFB8B8"/>
<path d="M885.852 515.415H713.447L714.228 513.198C713.79 511.856 713.384 510.513 713.009 509.17C712.604 507.765 712.259 506.328 711.948 504.923C709.146 491.851 709.157 478.332 711.978 465.265C721.504 418.486 759.507 380.483 759.507 380.483C760.163 379.983 760.818 379.515 761.474 379.046C767.127 374.907 773.261 371.468 779.742 368.804C807.971 357.094 837.575 361.809 857.465 367.867C864.393 369.962 871.165 372.54 877.733 375.58C880.043 376.673 881.293 377.36 881.293 377.36L883.26 437.348L885.632 509.17L885.852 515.415Z" fill="#812CC2"/>
<path d="M965.608 509.17L952.429 442.156L939.127 374.581C938.572 371.79 937.187 369.232 935.153 367.243C933.119 365.253 930.53 363.925 927.728 363.433L899.874 358.624L873.956 354.158C871.456 353.708 868.88 353.95 866.508 354.858C864.135 355.766 862.057 357.306 860.497 359.311C858.549 361.738 857.481 364.754 857.467 367.867C857.467 369.789 857.861 371.691 858.623 373.457C872.144 404.996 872.394 454.928 868.959 509.17C868.803 511.231 868.678 513.323 868.521 515.415H966.856L965.608 509.17Z" fill="#2F2E41"/>
<path d="M779.743 368.804C779.17 366.532 778.04 364.437 776.456 362.71C774.872 360.982 772.884 359.676 770.669 358.908C768.455 358.14 766.084 357.934 763.771 358.31C761.457 358.685 759.273 359.631 757.416 361.06L745.456 371.927L696.491 416.519C694.965 417.889 693.769 419.586 692.993 421.484C687.466 434.693 676.693 460.768 664.17 492.963C662.141 498.21 660.049 503.612 657.895 509.17C657.144 511.231 656.333 513.324 655.521 515.416H736.213C736.868 513.324 737.524 511.231 738.18 509.17C741.77 497.835 745.268 486.718 748.641 475.913C758.508 444.53 767.408 416.02 774.279 393.474C776.183 387.228 777.921 381.461 779.493 376.174C780.227 373.782 780.313 371.24 779.743 368.804V368.804Z" fill="#2F2E41"/>
<path d="M983.716 515.416H988.931L988.213 513.667L986.308 509.17L956.923 439.44L952.427 442.157L916.328 463.984L934.846 509.17L937.406 515.416H966.854H983.716Z" fill="#FFB8B8"/>
<path d="M953.926 384.137C949.95 373.73 942.105 365.264 932.03 360.509C921.956 355.754 910.432 355.079 899.872 358.624C898.522 359.072 897.198 359.593 895.906 360.186C888.508 363.486 882.204 368.826 877.732 375.581C875.907 378.278 874.408 381.181 873.266 384.231C871.24 389.524 870.282 395.166 870.448 400.831C870.614 406.496 871.901 412.073 874.234 417.238L883.259 437.348L915.548 509.171L918.358 515.416H983.717L988.213 513.667L999.893 509.171L1001.52 508.546L953.926 384.137Z" fill="#2F2E41"/>
<path d="M869.097 177.137C871.771 177.938 874.634 177.836 877.243 176.846C879.852 175.856 882.062 174.033 883.531 171.66C884.922 169.241 885.74 166.536 885.923 163.751C886.106 160.967 885.649 158.178 884.587 155.598C882.411 150.448 878.98 145.924 874.609 142.437C869.645 137.945 863.601 134.816 857.067 133.355C853.803 132.653 850.426 132.661 847.165 133.378C843.904 134.095 840.835 135.504 838.166 137.511C835.546 139.584 833.603 142.392 832.588 145.575C831.572 148.758 831.529 152.172 832.465 155.38C834.45 161.14 839.829 164.998 845.201 167.872C855.86 173.562 867.613 176.903 879.67 177.671L869.097 177.137Z" fill="#2F2E41"/>
<path d="M884.016 262.935C871.685 264.635 873.268 258.359 868.33 246.933C863.391 235.507 856.781 221.944 844.387 220.787C834.231 219.838 825.863 227.958 817.635 233.987C802.97 244.733 783.205 249.993 766.206 243.546C749.206 237.1 737.393 216.839 743.843 199.841C745.851 195.147 748.801 190.916 752.511 187.408C756.221 183.901 760.611 181.193 765.41 179.452C775.038 176.029 785.263 174.609 795.459 175.278C818.135 176.003 840.375 181.696 860.611 191.956C874.576 199.052 888.172 209.203 893.47 223.945C898.767 238.687 902.254 259.403 887.105 263.39L884.016 262.935Z" fill="#2F2E41"/>
<path d="M862.793 136.59C856.698 125.981 861.729 111.425 871.702 104.336C881.674 97.2473 895.052 96.552 906.952 99.395C918.721 102.36 929.503 108.367 938.218 116.813C946.933 125.26 953.273 135.85 956.604 147.52C961.654 166.073 958.651 186 962.928 204.746C965.208 214.739 969.509 224.159 975.567 232.427C981.624 240.695 989.311 247.636 998.152 252.821C1006.99 258.006 1016.8 261.327 1026.98 262.578C1037.15 263.83 1047.47 262.985 1057.3 260.097C1070.11 256.336 1083.13 247.191 1084.39 233.9C1085.72 249.162 1082.24 264.457 1074.44 277.643C1066.64 290.829 1054.91 301.247 1040.9 307.436C1024.39 314.321 1005.98 314.77 988.109 314.311C976.459 314.012 964.544 313.311 953.797 308.804C946.361 305.413 939.676 300.571 934.136 294.564C928.595 288.556 924.308 281.503 921.528 273.817C916.057 258.37 914.579 241.789 917.233 225.618C918.992 213.038 922.49 200.709 923.469 188.045C924.448 175.381 922.592 161.859 914.784 151.841C906.977 141.822 892.064 136.704 880.964 142.878C876.503 145.36 872.904 149.413 868.057 151.014C863.21 152.616 856.341 149.802 856.782 144.716L862.793 136.59Z" fill="#2F2E41"/>
<path d="M1386.17 515.416L1386.77 509.17L1404.38 325.929C1410.15 321.409 1416.35 317.466 1422.9 314.157C1459.15 295.889 1494.13 304.632 1513.05 312.189C1518.06 314.153 1522.91 316.523 1527.54 319.278L1537.84 509.17L1538.19 515.416H1386.17Z" fill="#812CC2"/>
<path d="M1468.65 277.161C1511.01 277.161 1545.35 242.822 1545.35 200.464C1545.35 158.105 1511.01 123.767 1468.65 123.767C1426.29 123.767 1391.95 158.105 1391.95 200.464C1391.95 242.822 1426.29 277.161 1468.65 277.161Z" fill="#FFB8B8"/>
<path d="M1530.88 247.228C1536.58 241.22 1540.37 233.652 1541.75 225.486C1543.14 217.32 1542.07 208.927 1538.67 201.373C1535.28 193.819 1529.71 187.445 1522.68 183.064C1515.65 178.682 1507.48 176.49 1499.2 176.767C1488.6 177.122 1478.6 181.462 1468.48 184.647C1453.14 189.865 1436.77 191.339 1420.75 188.945C1404.63 186.442 1390.08 177.853 1380.1 164.945C1370.61 151.903 1367.65 133.813 1374.36 119.144C1382.1 102.208 1400.18 92.8759 1417.18 85.2936C1424.04 81.86 1431.37 79.4532 1438.92 78.1502C1442.71 77.5214 1446.59 77.681 1450.31 78.6192C1454.03 79.5574 1457.52 81.2539 1460.55 83.6025C1465.33 87.7129 1468.13 93.8912 1473.33 97.4534C1479.19 101.463 1486.79 101.358 1493.85 102.065C1509.76 103.657 1524.8 110.053 1536.98 120.402C1549.16 130.751 1557.9 144.563 1562.03 160.001C1566.17 175.439 1565.51 191.771 1560.14 206.824C1554.77 221.878 1544.95 234.94 1531.97 244.273L1530.88 247.228Z" fill="#2F2E41"/>
<path d="M1434.32 345.883L1422.9 314.156L1422.18 312.178C1421.84 311.241 1421.3 310.392 1420.58 309.697C1419.87 309.003 1419 308.479 1418.06 308.167C1417.11 307.855 1416.11 307.763 1415.12 307.897C1414.13 308.031 1413.19 308.388 1412.36 308.941L1399.38 317.591C1399.38 317.591 1316.16 317.591 1309.48 367.523C1309.39 368.304 1309.26 369.178 1309.17 370.115C1309.16 370.158 1309.15 370.2 1309.14 370.24C1308.29 373.519 1292.59 434.225 1279.09 509.17C1278.72 511.231 1278.35 513.323 1277.97 515.415H1458.81V515.415C1464.69 440.129 1461.4 370.131 1434.32 345.883Z" fill="#2F2E41"/>
<path d="M1650.04 509.17C1640.18 432.288 1626.06 370.115 1626.06 370.115C1625.94 369.178 1625.81 368.304 1625.72 367.523C1619.07 317.591 1535.85 317.591 1535.85 317.591L1522.88 308.945C1522.05 308.392 1521.1 308.035 1520.11 307.901C1519.13 307.767 1518.12 307.86 1517.17 308.173C1516.23 308.485 1515.36 309.009 1514.65 309.705C1513.93 310.401 1513.39 311.25 1513.05 312.189L1500.9 345.883C1473.83 370.131 1470.54 440.128 1476.42 515.413L1476.42 515.415H1650.82C1650.57 513.323 1650.29 511.231 1650.04 509.17Z" fill="#2F2E41"/>
<path d="M185.236 334.11L166.688 509.17L166.032 515.415H115.851C116.444 513.386 117.037 511.293 117.662 509.17C131.902 460.331 151.294 389.039 149.2 370.147C145.922 340.668 168.874 330.832 168.874 330.832L170.311 331.113L185.236 334.11Z" fill="#812CC2"/>
<path d="M266.168 280.076C308.527 280.076 342.865 245.737 342.865 203.379C342.865 161.02 308.527 126.682 266.168 126.682C223.809 126.682 189.471 161.02 189.471 203.379C189.471 245.737 223.809 280.076 266.168 280.076Z" fill="#A0616A"/>
<path d="M365.45 478.255C361.582 485.386 358.414 492.874 355.988 500.614C355.083 503.362 354.209 506.235 353.396 509.17C352.803 511.2 352.273 513.292 351.742 515.416H149.451C149.733 513.355 149.982 511.263 150.264 509.17C160.6 427.511 168.968 344.634 170.311 331.113C170.436 329.833 170.499 329.177 170.499 329.177C291.722 265.286 380.189 348.85 380.189 348.85C380.189 348.85 380.314 349.443 380.502 350.599C382.438 362.278 392.305 430.478 365.45 478.255Z" fill="#812CC2"/>
<path d="M355.987 500.614L342.497 471.697L345.775 357.031L380.5 350.598L381.719 350.38C399.667 360.814 413.556 377.015 421.126 396.346C427.872 413.209 440.706 463.922 451.542 509.17C452.042 511.262 452.541 513.354 453.041 515.415H362.888L359.983 509.17L355.987 500.614Z" fill="#812CC2"/>
<path d="M479.369 0.16748H35.8808C26.3682 0.178851 17.2486 3.9627 10.5221 10.689C3.79565 17.4153 0.0115697 26.535 0 36.0476V479.536C0.0115697 489.048 3.79565 498.168 10.5221 504.894C17.2486 511.621 26.3682 515.405 35.8808 515.416H479.369C488.883 515.41 498.006 511.627 504.733 504.9C511.46 498.172 515.242 489.05 515.248 479.536V36.0476C515.242 26.5336 511.46 17.411 504.733 10.6835C498.006 3.95601 488.883 0.17371 479.369 0.16748ZM509.003 479.536C508.996 487.393 505.872 494.927 500.316 500.483C494.76 506.039 487.227 509.164 479.369 509.17H35.8808C28.0247 509.159 20.4939 506.033 14.9388 500.478C9.38367 494.923 6.25748 487.392 6.24544 479.536V36.0476C6.25748 28.1916 9.38367 20.6608 14.9388 15.1058C20.4939 9.55081 28.0247 6.42476 35.8808 6.41292H479.369C487.227 6.41964 494.76 9.54404 500.316 15.1002C505.872 20.6563 508.996 28.1901 509.003 36.0476V479.536ZM166.69 509.17L166.034 515.416H351.743C352.274 513.292 352.804 511.2 353.398 509.17H166.69Z" fill="#3F3D56"/>
<path d="M1074.59 0.16748H631.1C621.588 0.17886 612.468 3.9627 605.742 10.689C599.015 17.4153 595.231 26.535 595.22 36.0476V479.536C595.231 489.048 599.015 498.168 605.742 504.894C612.468 511.621 621.588 515.405 631.1 515.416H1074.59C1084.1 515.41 1093.23 511.627 1099.95 504.9C1106.68 498.172 1110.46 489.05 1110.47 479.536V36.0476C1110.46 26.5336 1106.68 17.411 1099.95 10.6835C1093.23 3.95601 1084.1 0.17371 1074.59 0.16748V0.16748ZM1104.22 479.536C1104.22 487.393 1101.09 494.927 1095.54 500.483C1089.98 506.039 1082.45 509.164 1074.59 509.17H631.1C623.244 509.159 615.714 506.033 610.158 500.478C604.603 494.923 601.477 487.392 601.465 479.536V36.0476C601.477 28.1916 604.603 20.6608 610.158 15.1058C615.714 9.55081 623.244 6.42476 631.1 6.41292H1074.59C1082.45 6.41964 1089.98 9.54404 1095.54 15.1002C1101.09 20.6563 1104.22 28.1901 1104.22 36.0476V479.536ZM713.009 509.17C713.384 510.513 713.79 511.856 714.227 513.199L713.447 515.416H868.52C868.677 513.324 868.802 511.231 868.957 509.17H713.009Z" fill="#3F3D56"/>
<path d="M1669.84 0.16748H1226.35C1216.84 0.173387 1207.72 3.95551 1200.99 10.683C1194.26 17.4105 1190.48 26.5333 1190.47 36.0476V479.536C1190.48 489.05 1194.26 498.173 1200.99 504.9C1207.72 511.628 1216.84 515.41 1226.35 515.416H1669.84C1679.35 515.404 1688.47 511.62 1695.2 504.894C1701.92 498.168 1705.71 489.048 1705.72 479.536V36.0476C1705.71 26.5353 1701.92 17.4158 1695.2 10.6895C1688.47 3.96319 1679.35 0.179141 1669.84 0.16748ZM1699.47 479.536C1699.46 487.392 1696.34 494.923 1690.78 500.478C1685.23 506.033 1677.7 509.159 1669.84 509.17H1226.35C1218.49 509.164 1210.96 506.04 1205.4 500.484C1199.85 494.928 1196.72 487.394 1196.72 479.536V36.0476C1196.72 28.1899 1199.85 20.6559 1205.4 15.0998C1210.96 9.54363 1218.49 6.41933 1226.35 6.41292H1669.84C1677.7 6.42482 1685.23 9.55087 1690.78 15.1059C1696.34 20.6609 1699.46 28.1917 1699.47 36.0476V479.536ZM1459.28 509.17C1459.12 511.231 1458.96 513.324 1458.81 515.416H1593.36C1593.61 513.355 1593.9 511.263 1594.15 509.17H1459.28Z" fill="#3F3D56"/>
<path d="M1368.11 696.533H337.61C330.984 696.533 324.63 693.901 319.945 689.216C315.26 684.531 312.628 678.177 312.628 671.552C312.628 664.926 315.26 658.572 319.945 653.887C324.63 649.202 330.984 646.57 337.61 646.57H1368.11C1374.73 646.57 1381.09 649.202 1385.77 653.887C1390.46 658.572 1393.09 664.926 1393.09 671.552C1393.09 678.177 1390.46 684.531 1385.77 689.216C1381.09 693.901 1374.73 696.533 1368.11 696.533Z" fill="#CCCCCC"/>
<path d="M302.855 274.95C305.452 277.511 308.886 279.05 312.526 279.283C316.166 279.516 319.768 278.428 322.671 276.22C340.747 262.82 356.616 246.142 366.008 225.798C376.769 202.487 377.969 173.882 364.995 151.726C354.027 132.997 334.659 120.911 315.357 110.987C307.862 106.757 299.789 103.645 291.393 101.751C282.908 99.8793 274.029 101.312 266.563 105.758C262.91 108.048 260.033 111.385 258.306 115.335C256.579 119.285 256.082 123.664 256.881 127.9C247.609 117.322 235.733 109.35 222.431 104.775C214.055 101.498 204.883 100.833 196.121 102.868C183.872 106.342 174.93 117.225 170.039 128.98C166.083 137.922 164.717 147.795 166.096 157.475C166.822 162.292 168.551 166.903 171.171 171.009C173.791 175.116 177.244 178.627 181.306 181.316C191.433 187.581 204.353 187.13 215.984 184.57C227.615 182.01 238.873 177.558 250.729 176.432C262.584 175.306 275.787 178.262 283.002 187.736C288.083 194.408 289.388 203.126 290.528 211.435L296.461 254.65C296.946 260.902 298.543 267.017 301.176 272.708C301.632 273.527 302.197 274.282 302.855 274.95Z" fill="#2F2E41"/>
</svg>
